HIERARCHY
ROOT Hips
{
  OFFSET -125.086 92.215 135.881
  CHANNELS 6 Xposition Yposition Zposition Zrotation Xrotation Yrotation
  JOINT LeftUpLeg
  {
    OFFSET 8.64259 1.95398 -2.38835
    CHANNELS 3 Zrotation Xrotation Yrotation
    JOINT LeftLeg
    {
      OFFSET 43.7702 0 0
      CHANNELS 3 Zrotation Xrotation Yrotation
      JOINT LeftFoot
      {
        OFFSET 40.6238 0 0
        CHANNELS 3 Zrotation Xrotation Yrotation
        JOINT LeftToeBase
        {
          OFFSET 12.7242 0 0
          CHANNELS 3 Zrotation Xrotation Yrotation
          End Site
          {
            OFFSET 0 0 0
          }
        }
      }
    }
  }
  JOINT RightUpLeg
  {
    OFFSET -8.2249 1.95398 -2.59336
    CHANNELS 3 Zrotation Xrotation Yrotation
    JOINT RightLeg
    {
      OFFSET 43.5653 0 0
      CHANNELS 3 Zrotation Xrotation Yrotation
      JOINT RightFoot
      {
        OFFSET 40.6238 0 0
        CHANNELS 3 Zrotation Xrotation Yrotation
        JOINT RightToeBase
        {
          OFFSET 12.7242 0 0
          CHANNELS 3 Zrotation Xrotation Yrotation
          End Site
          {
            OFFSET 0 0 0
          }
        }
      }
    }
  }
  JOINT Spine
  {
    OFFSET 0.165834 0.87714 6.61349
    CHANNELS 3 Zrotation Xrotation Yrotation
    JOINT Spine1
    {
      OFFSET 7.38963 1.71661e-005 0
      CHANNELS 3 Zrotation Xrotation Yrotation
      JOINT Spine2
      {
        OFFSET 11.9445 1.14441e-005 0
        CHANNELS 3 Zrotation Xrotation Yrotation
        JOINT Spine3
        {
          OFFSET 14.7254 4.19617e-005 0
          CHANNELS 3 Zrotation Xrotation Yrotation
          JOINT Spine4
          {
            OFFSET 10.9679 0 0
            CHANNELS 3 Zrotation Xrotation Yrotation
            JOINT RightShoulder
            {
              OFFSET 2.46616 -1.6653 3.69651
              CHANNELS 3 Zrotation Xrotation Yrotation
              JOINT RightArm
              {
                OFFSET 13.0012 0 0
                CHANNELS 3 Zrotation Xrotation Yrotation
                JOINT RightForeArm
                {
                  OFFSET 28.7848 1.52588e-005 0
                  CHANNELS 3 Zrotation Xrotation Yrotation
                  JOINT RightHand
                  {
                    OFFSET 26.5688 1.52588e-005 0
                    CHANNELS 3 Zrotation Xrotation Yrotation
                    End Site
                    {
                      OFFSET 0 0 0
                    }
                  }
                }
              }
            }
            JOINT LeftShoulder
            {
              OFFSET 2.38034 -1.29275 -3.7523
              CHANNELS 3 Zrotation Xrotation Yrotation
              JOINT LeftArm
              {
                OFFSET 16.3182 6.10352e-005 0
                CHANNELS 3 Zrotation Xrotation Yrotation
                JOINT LeftForeArm
                {
                  OFFSET 27.0901 0 0
                  CHANNELS 3 Zrotation Xrotation Yrotation
                  JOINT LeftHand
                  {
                    OFFSET 24.5451 1.52588e-005 0
                    CHANNELS 3 Zrotation Xrotation Yrotation
                    End Site
                    {
                      OFFSET 0 0 0
                    }
                  }
                }
              }
            }
            JOINT Neck
            {
              OFFSET 5.0226 -0.0266342 0
              CHANNELS 3 Zrotation Xrotation Yrotation
              JOINT Head
              {
                OFFSET 6.69363 2.86102e-005 0
                CHANNELS 3 Zrotation Xrotation Yrotation
                End Site
                {
                  OFFSET 0 0 0
                }
              }
            }
          }
        }
      }
    }
  }
}
MOTION
Frames:	17
Frame Time:	0.0416667
202.836 34.4893 -203.243 -124.84 -45.8104 -115.626 -103.829 68.8533 25.8084 -157.357 11.3852 4.22713 48.3416 -4.01491 49.1411 90.5256 -11.591 -13.2916 -126.79 70.5361 9.10708 -155.128 -25.9444 -3.4827 64.3875 2.26397 16.0775 59.7213 -2.65045 12.2929 0.493213 12.8411 -90.6716 1.19362 0.72984 -1.28408 -10.4778 0.672617 -1.31496 -33.0112 1.08199 -1.00541 -12.9985 1.08199 -1.00541 103.08 -36.6649 -80.449 16.7235 -27.2464 -52.1607 -46.9149 -6.72375 -84.4642 -13.4637 -1.66518 9.38313 -81.9521 -32.4978 89.0171 -25.3672 21.741 -62.9501 14.2813 18.1516 -60.8036 4.43406 -0.039236 -3.5074 -1.00475 0.473331 -7.57458 16.4223 3.89018 13.5821 
202.842 34.5155 -203.232 -124.938 -45.89 -115.72 -104.433 69.1473 26.3998 -157.494 11.5042 4.20457 49.2252 -3.00455 47.5674 88.932 -11.109 -13.1728 -127.155 70.9704 9.34366 -155.17 -26.1533 -3.51414 64.0681 2.10599 14.8315 60.3366 -2.61633 12.6435 0.472619 12.8078 -90.6299 1.26019 0.704202 -1.20451 -10.4111 0.650505 -1.23433 -32.9449 1.03364 -0.937203 -12.9322 1.03363 -0.937214 103.181 -37.2592 -80.2768 16.2874 -27.6427 -52.0338 -46.4516 -6.5115 -84.5965 -13.3538 -1.74375 10.1911 -81.9644 -31.8799 88.9227 -25.6818 21.8262 -62.3493 15.0943 18.3603 -61.0698 4.88724 -0.0788347 -4.14204 -0.611487 0.531077 -11.4175 15.5311 5.05753 17.4473 
202.938 34.6741 -203.334 -125.495 -46.0295 -115.818 -114.423 73.6964 37.2775 -158.279 14.2079 4.06352 59.2184 5.58028 31.2608 77.6335 -4.50043 0.482451 -129.609 69.9294 11.6976 -154.692 -25.1831 -3.52411 65.0574 2.57869 18.4039 60.5088 -2.77984 11.7881 0.472757 12.8407 -90.6855 1.1943 0.683677 -1.31256 -10.4772 0.625269 -1.34137 -33.0101 1.04653 -1.04644 -12.9974 1.04654 -1.04645 103.149 -37.3053 -80.3377 16.359 -27.6076 -51.8498 -45.8521 -6.50436 -84.4243 -14.0992 -1.76513 9.50491 -81.9753 -31.8918 88.9033 -25.7114 21.8944 -62.3913 17.6065 19.8504 -61.5779 6.80532 -0.185066 -5.57125 -1.07076 0.531715 -10.2022 16.1601 4.69938 16.0438 
202.934 34.6855 -203.361 -125.553 -46.1014 -115.766 -121.841 75.657 45.2841 -158.374 16.1335 4.08965 63.8263 8.25311 23.9608 72.794 -0.50127 11.7854 -130.252 70.2611 12.2439 -154.68 -25.3452 -3.56816 64.9258 2.58494 18.1012 60.3096 -2.88215 11.1624 0.459472 12.8493 -90.6887 1.17691 0.65617 -1.31966 -10.4946 0.597451 -1.34725 -33.0273 1.02242 -1.06148 -13.0146 1.02241 -1.06149 103.076 -37.3923 -80.4742 16.4364 -27.724 -51.7424 -44.4049 -6.25745 -84.0858 -14.743 -1.70469 8.38662 -81.8412 -31.9756 89.1694 -25.7303 21.8876 -62.5387 17.4722 19.7652 -61.6492 5.84088 -0.120245 -4.75032 -0.580484 0.50998 -10.1681 15.5408 4.59708 15.8776 
202.981 34.796 -203.311 -124.924 -45.7926 -115.474 -120.395 75.0854 44.245 -158.202 15.1537 4.16558 63.9501 8.42859 23.6861 73.3515 -0.866591 10.6164 -128.642 70.156 11.0303 -154.541 -25.4519 -3.49486 64.8489 2.51958 17.759 59.2157 -2.67746 11.994 0.496524 12.8473 -90.655 1.18124 0.742757 -1.25104 -10.4901 0.686977 -1.28252 -33.0238 1.08438 -0.970014 -13.0111 1.08439 -0.970014 103.185 -37.3339 -80.272 16.4026 -27.598 -51.9502 -45.4508 -6.22361 -84.3654 -13.3798 -1.56232 8.57181 -81.9403 -31.7525 88.954 -25.9044 21.7836 -62.5264 17.4762 19.5639 -61.5987 5.61789 -0.211953 -6.10828 0.0201287 0.410419 -10.5181 14.9674 4.58409 16.2615 
202.912 34.7213 -203.308 -125.111 -45.7627 -115.59 -121.443 75.3337 45.3627 -158.411 15.9562 4.14589 63.965 8.30719 23.8979 72.8353 -0.681701 11.3 -129.366 69.2106 11.6812 -154.41 -24.5568 -3.45667 65.881 2.87642 20.805 58.2214 -2.80723 10.8816 0.452771 12.843 -90.6214 1.18957 0.668073 -1.18823 -10.4818 0.615163 -1.21649 -33.0154 0.994308 -0.932539 -13.0027 0.994314 -0.932534 103 -37.4608 -80.6176 16.3405 -27.8856 -51.835 -44.0342 -6.15581 -84.03 -14.8605 -1.65331 7.86521 -81.7335 -31.9979 89.3776 -25.5257 21.8218 -62.3287 17.0861 19.3932 -61.6691 6.19229 -0.162422 -5.34229 -0.708619 0.570158 -10.3005 15.3325 4.62171 15.8123 
202.859 34.648 -203.249 -125.364 -45.9571 -115.805 -123.878 75.9487 47.4233 -158.56 15.5443 4.02392 64.6167 8.50542 22.2433 72.3546 -0.88176 10.5927 -130.296 68.0191 12.2215 -154.292 -24.2812 -3.42105 66.8138 3.22475 23.2072 55.9647 -2.77261 10.1755 0.436174 12.8427 -90.6341 1.19018 0.630208 -1.21442 -10.4812 0.576147 -1.24099 -33.0144 0.966045 -0.968907 -13.0018 0.966048 -0.968907 103.109 -37.3376 -80.4116 16.2726 -28.0649 -51.8265 -43.6759 -6.16458 -83.9905 -15.6515 -1.80488 8.32615 -81.8837 -31.6584 89.052 -25.7844 21.8005 -62.1688 17.4256 19.4836 -61.817 6.5393 -0.127258 -4.84241 -0.880738 0.542021 -10.3905 15.1605 4.59706 15.997 
202.727 34.5901 -203.173 -124.8 -45.6669 -115.293 -127.151 77.1992 51.0319 -158.767 15.5673 3.94098 65.005 8.12987 19.826 71.7403 -1.00826 10.135 -129.396 67.5736 11.8517 -154.227 -23.9151 -3.35162 66.7231 3.64979 24.6375 55.0963 -2.58784 11.128 0.468684 12.8082 -90.6176 1.25931 0.700973 -1.18059 -10.412 0.648326 -1.2103 -32.9459 1.02336 -0.915363 -12.9332 1.02337 -0.915378 102.93 -37.2741 -80.7419 16.488 -28.052 -51.4832 -42.7478 -6.23811 -83.7858 -17.0077 -1.95984 8.26966 -81.871 -31.8262 89.0952 -25.6099 21.8093 -62.1987 17.2306 19.4699 -61.7558 6.4588 -0.102918 -4.53127 -1.58022 0.548995 -10.7578 15.7229 4.77028 16.5737 
202.597 34.6545 -202.956 -124.137 -45.4683 -114.998 -130.021 77.6122 54.0931 -158.767 15.677 3.91546 65.4679 8.05341 18.0516 71.8213 -1.05916 9.94342 -128.916 66.428 11.4753 -154.024 -23.5885 -3.24603 67.3628 4.02024 26.7779 54.3952 -2.5992 10.7141 0.50972 12.7559 -90.6404 1.36421 0.773771 -1.22399 -10.3071 0.719145 -1.25686 -32.8411 1.10585 -0.934875 -12.8285 1.10582 -0.934894 102.886 -36.8451 -80.8141 17.2784 -27.9347 -50.7656 -44.072 -6.29746 -83.9937 -16.5169 -1.87437 8.08008 -82.15 -32.3246 88.6207 -25.5559 21.7764 -62.2755 16.3431 19.0405 -61.5361 6.03186 -0.177876 -5.55869 -2.60253 0.479977 -8.43669 16.546 4.07116 14.4748 
202.528 34.7142 -202.789 -123.587 -45.2727 -114.404 -137.906 78.7839 62.0086 -158.928 16.5673 3.79289 66.3204 7.81539 15.2935 70.9193 -0.836802 10.8147 -128.225 66.4298 11.1026 -153.924 -24.5565 -3.25644 66.6559 4.28677 26.3549 54.4517 -2.56384 10.9795 0.532992 12.7435 -90.6306 1.38933 0.823753 -1.20353 -10.2819 0.769976 -1.23862 -32.8164 1.14736 -0.900341 -12.8038 1.14736 -0.900341 102.877 -37.035 -80.8351 17.03 -28.1756 -51.029 -43.5634 -6.11122 -83.8632 -16.4747 -1.83765 7.84257 -81.9295 -31.9681 88.9995 -25.8769 21.996 -62.3968 15.7862 18.5818 -61.3762 6.12031 -0.205092 -5.91502 -2.02924 0.491427 -10.1519 15.8793 4.64573 16.7251 
202.344 34.7771 -202.637 -122.705 -45.149 -113.738 -141.248 79.3205 65.5792 -158.928 16.7351 3.76038 66.6313 7.59223 13.6432 70.9911 -0.744384 11.1784 -127.424 66.8354 10.5819 -153.893 -24.6792 -3.262 66.0263 4.25459 25.5542 56.2596 -2.3704 13.0942 0.567763 12.7166 -90.6045 1.44338 0.90282 -1.15114 -10.2278 0.851278 -1.18976 -32.7631 1.20704 -0.826603 -12.7504 1.20703 -0.826611 103.089 -37.2807 -80.4488 17.2108 -28.2956 -50.9738 -44.8978 -6.08681 -84.585 -17.1921 -2.1036 9.09945 -81.9526 -31.6064 88.9128 -26.3157 22.1511 -61.9737 14.6421 17.3276 -61.6602 4.87807 -0.211982 -6.28935 -0.301126 0.119956 -9.97406 13.9728 4.0356 16.1729 
202.235 34.886 -202.424 -121.644 -45.2409 -112.912 -139.514 79.3854 63.6936 -158.931 16.584 3.76246 66.4733 7.56815 14.1005 71.5816 -0.730308 11.187 -126.729 67.0182 9.94488 -153.849 -25.0835 -3.28998 66.0806 4.24897 25.2353 56.9884 -2.41303 12.9996 0.536587 12.6995 -90.5988 1.47728 0.842666 -1.14216 -10.1939 0.791565 -1.17813 -32.7288 1.14695 -0.836114 -12.7162 1.14694 -0.836119 102.959 -36.9436 -80.6821 17.69 -28.6799 -50.8089 -45.8689 -5.6703 -84.9 -17.7485 -2.18342 9.15127 -81.6359 -32.1116 89.5736 -25.924 22.2183 -62.1806 14.3825 17.0072 -62.4796 4.85169 -0.118017 -4.82256 0.837283 0.0755914 -8.34048 13.1292 3.44029 14.3458 
202.059 35.0622 -202.319 -120.491 -44.9973 -111.806 -148.163 79.1139 72.6726 -159.028 17.0957 3.62817 68.904 8.94423 13.0042 69.5833 -0.648005 11.6357 -126.613 67.8323 10.3728 -153.625 -24.4723 -3.33704 66.043 4.22395 25.5155 56.7208 -2.31013 13.6106 0.553731 12.6966 -90.6084 1.48327 0.873169 -1.16005 -10.1879 0.821249 -1.19735 -32.723 1.18141 -0.844014 -12.7103 1.18142 -0.84402 102.737 -36.5219 -81.0874 18.5602 -28.8381 -50.02 -46.7406 -5.11265 -85.5053 -17.1552 -2.18895 9.70385 -81.6505 -32.7968 89.6215 -25.4877 22.0551 -61.5443 13.6762 16.3893 -63.0373 5.051 -0.192724 -5.94491 -0.56597 0.175581 -6.44598 14.0995 2.95873 12.1611 
201.862 35.2567 -202.203 -118.918 -44.4104 -110.028 -156.648 80.2269 81.8915 -158.981 17.9224 3.50011 68.4071 8.27324 12.2242 70.5236 -0.863716 10.7274 -126.193 70.3586 10.8614 -153.589 -24.0913 -3.50943 65.0437 3.71999 23.0556 59.8527 -2.18693 14.9584 0.670097 12.7171 -90.5978 1.44324 1.10969 -1.13176 -10.2278 1.05881 -1.1795 -32.7647 1.39851 -0.745922 -12.7521 1.39852 -0.745918 103.081 -36.2554 -80.4374 19.1537 -29.9116 -49.5364 -46.0066 -3.70038 -86.1287 -18.1788 -2.25292 9.24582 -81.2227 -31.6117 90.3169 -26.118 22.8514 -61.7334 13.6315 15.4086 -64.1578 5.39774 -0.218553 -6.29323 2.23027 0.0239309 -5.10143 11.5451 2.15597 9.82098 
201.596 35.3954 -201.924 -116.844 -43.8409 -107.978 -170.937 81.0197 96.7651 -158.91 17.9102 3.35815 68.8374 7.85557 9.20772 71.6272 -0.946478 10.3719 -124.784 71.0194 9.98604 -153.265 -24.1298 -3.5283 65.0615 3.98136 24.1588 59.7523 -2.16174 15.0767 0.778238 12.6933 -90.6177 1.49173 1.31775 -1.16538 -10.1791 1.26518 -1.22224 -32.7178 1.60704 -0.715429 -12.7051 1.60704 -0.715429 103.09 -35.3655 -80.3963 20.9486 -30.7514 -47.3915 -46.569 -1.41907 -87.4987 -17.7847 -2.05605 8.30015 -80.9702 -30.4611 90.6989 -28.2389 23.0042 -61.081 15.3206 14.8885 -65.6181 2.5603 -0.254578 -8.04596 0.0984049 -0.495812 -1.95871 13.5995 0.64437 5.63495 
201.317 35.7091 -201.559 -113.872 -42.9848 -105.015 162.84 80.1462 123.805 -158.744 18.8167 3.09716 70.5175 7.44044 3.81373 71.3325 -0.663138 11.4572 -123.262 71.3198 9.36759 -152.486 -24.498 -3.52752 65.802 4.72036 27.0378 57.7386 -2.23433 14.2874 0.959324 12.6266 -90.6716 1.62694 1.65799 -1.26363 -10.0436 1.60078 -1.33538 -32.5853 1.96109 -0.706817 -12.5727 1.9611 -0.706805 102.965 -33.6434 -80.5924 22.5734 -31.3699 -45.2037 -45.6471 0.607551 -88.855 -18.6238 -2.41262 9.83945 -80.4492 -28.62 91.5722 -30.0736 24.2286 -61.6501 10.7696 12.8077 -63.8805 5.10396 -0.0568468 -3.70366 -7.86798 -1.02293 -2.41346 22.4859 0.473655 5.6535 
201.224 36.3462 -201.115 -111.418 -42.1289 -102.525 147.742 78.2817 138.44 -158.037 22.8326 3.01184 69.2765 5.57047 1.91453 74.4578 -0.370677 12.2844 -123.324 72.3901 9.85082 -151.53 -25.6651 -3.6426 65.9066 4.78739 26.956 57.2833 -2.31393 13.7172 1.17641 12.7574 -90.7563 1.36769 2.06016 -1.41015 -10.3025 1.99613 -1.49946 -32.8487 2.38867 -0.725572 -12.836 2.38868 -0.725562 102.62 -30.1464 -81.211 30.692 -30.5432 -40.4255 -42.4498 2.70242 -91.0198 -21.7927 -2.59921 8.60655 -80.1483 -23.4001 91.7659 -37.1778 23.5035 -63.6658 22.9277 14.9197 -67.5671 -7.57426 0.0835262 -8.20014 -13.9678 -0.92246 -5.62957 29.1101 1.59243 8.12008 
